<svg width="40" height="40" viewBox="0 0 340 340" fill="none" xmlns="http://www.w3.org/2000/svg">
<g clip-path="url(#clip0_1748_171)">
<rect width="340" height="340" rx="170" fill="url(#paint0_linear_1748_171)"/>
<path d="M80.7622 228.284C86.2156 228.119 102.397 222.969 105.613 220.593Z" fill="white"/>
<path d="M78.5179 253.664C68.4563 267.719 35.9232 271.891 30.3724 273.9C21.2683 277.34 19.7198 286.642 19.5852 291.71C19.1962 306.146 17.498 330.912 22.5775 344" fill="white"/>
<path d="M78.5179 253.664C84.6222 242.691 80.7622 228.284 80.7622 228.284C80.7622 228.284 68.935 228.846 64.1922 226.425C55.0731 222.504 44.241 208.165 44.3532 187.634C44.6118 169.145 48.5089 150.889 55.8212 133.912C62.4193 116.814 103.362 100.833 134.205 130.696C134.205 130.696 150.835 145.928 141.177 171.241" fill="white"/>
<path d="M189.099 344C193.491 329.9 191.763 292.826 191.127 287.594C190.491 282.362 188.037 271.748 175.043 268.518C169.298 267.071 133.322 261.243 126.021 251.131" fill="white"/>
<path d="M124.255 212.902C124.255 212.902 136.337 206.029 141.155 191.697C145.972 177.365 141.177 171.241 141.177 171.241C137.309 165.462 121.921 164.045 121.921 181.48" fill="white"/>
<path d="M124.255 212.902C123.335 231.117 123.103 239.475 126.021 251.131Z" fill="white"/>
<path d="M78.5179 253.664C68.4563 267.719 35.9232 271.891 30.3724 273.9C21.2683 277.34 19.7198 286.642 19.5852 291.71C19.1962 306.146 17.498 330.912 22.5775 344H189.099C193.491 329.9 191.763 292.826 191.127 287.594C190.491 282.362 188.037 271.748 175.043 268.518C169.298 267.071 133.322 261.243 126.021 251.131C123.103 239.475 123.335 231.117 124.255 212.902C124.255 212.902 136.337 206.029 141.155 191.697C145.972 177.365 141.177 171.241 141.177 171.241C150.835 145.928 134.205 130.696 134.205 130.696C103.362 100.833 62.4193 116.814 55.8212 133.912C48.5089 150.889 44.6118 169.145 44.3532 187.634C44.241 208.165 55.0731 222.504 64.1922 226.425C68.935 228.846 80.7622 228.284 80.7622 228.284C80.7622 228.284 84.6222 242.691 78.5179 253.664Z" fill="white"/>
<mask id="mask0_1748_171" style="mask-type:alpha" maskUnits="userSpaceOnUse" x="20" y="245" width="171" height="99">
<path d="M129.271 255.785C128.551 252.698 128.404 249.141 128.703 245.316C128.547 245.388 128.387 245.458 128.223 245.527C126.556 246.229 124.385 246.833 121.869 247.328C116.827 248.321 110.195 248.916 102.959 248.916C95.698 248.916 89.0461 248.317 83.997 247.318C81.4779 246.82 79.3069 246.212 77.6429 245.505C77.5364 245.46 77.4313 245.414 77.3277 245.367C77.7388 249.375 77.5982 253.364 76.8404 257.412C76.7807 257.731 76.6193 258.022 76.3803 258.241C69.922 264.167 59.6284 267.877 50.5396 270.333C45.9608 271.571 41.6171 272.508 38.1211 273.247L37.3453 273.411C34.1901 274.077 31.9527 274.549 30.8903 274.931C22.7296 278.022 21.2131 286.398 21.0808 291.375C21.03 293.261 20.9575 295.312 20.8807 297.483L20.8806 297.484C20.6613 303.683 20.4074 310.859 20.5267 317.961C20.6802 327.105 21.4547 335.892 23.621 342.126H187.976C189.855 335.135 190.467 323.228 190.502 312.092C190.54 300.429 189.948 289.925 189.642 287.401C189.335 284.879 188.6 281.168 186.451 277.726C184.329 274.327 180.785 271.115 174.683 269.598L174.679 269.597C173.761 269.366 172.019 269.035 169.656 268.585C168.971 268.455 168.234 268.315 167.45 268.165C164.002 267.503 159.73 266.657 155.228 265.612C146.289 263.537 136.223 260.631 129.938 256.717C129.601 256.507 129.361 256.172 129.271 255.785Z" fill="#C4C4C4"/>
</mask>
<g mask="url(#mask0_1748_171)">
<path d="M191.254 230.934C191.254 230.934 137.914 255.316 103.729 255.295C70.7112 255.275 19.1956 230.934 19.1956 230.934V241.428C19.1956 241.428 70.7135 263.9 103.729 263.915C137.912 263.931 191.254 242.178 191.254 242.178V230.934Z" fill="white"/>
<path d="M191.254 253.421C191.254 253.421 137.914 270.308 103.729 270.287C70.7114 270.267 19.1958 253.421 19.1958 253.421V263.915C19.1958 263.915 70.7137 278.892 103.729 278.907C137.912 278.923 191.254 264.665 191.254 264.665V253.421Z" fill="white"/>
<path d="M191.254 268.413C191.254 268.413 137.914 285.299 103.729 285.278C70.7114 285.258 19.1958 268.413 19.1958 268.413V278.907C19.1958 278.907 70.7137 293.883 103.729 293.899C137.912 293.914 191.254 279.657 191.254 279.657V268.413Z" fill="white"/>
<path d="M191.254 284.154C191.254 284.154 137.914 301.04 103.729 301.019C70.7114 300.999 19.1958 284.154 19.1958 284.154V294.648C19.1958 294.648 70.7137 309.625 103.729 309.64C137.912 309.655 191.254 295.398 191.254 295.398V284.154Z" fill="white"/>
<path d="M191.254 302.144C191.254 302.144 137.914 316.032 103.729 316.011C70.7114 315.991 19.1958 302.893 19.1958 302.893V313.387C19.1958 313.387 70.7137 324.616 103.729 324.631C137.912 324.647 191.254 313.387 191.254 313.387V302.144Z" fill="white"/>
<path d="M191.254 320.134C191.254 320.134 137.914 329.524 103.729 329.503C70.7114 329.483 19.1958 320.134 19.1958 320.134V330.628C19.1958 330.628 70.7137 338.109 103.729 338.124C137.912 338.139 191.254 331.377 191.254 331.377V320.134Z" fill="white"/>
</g>
<path d="M189.099 343.625C193.491 329.526 191.763 292.452 191.127 287.22C190.491 281.988 188.037 271.374 175.043 268.143C170.09 266.896 142.828 262.98 130.728 255.444C129.849 251.68 129.864 247.077 130.57 242.023C129.084 245.055 117.289 247.417 102.959 247.417C88.5804 247.417 76.7533 245.038 75.3333 241.992C76.2649 247.069 76.3207 252.056 75.3699 257.135C63.0303 268.457 35.4551 271.685 30.3725 273.525C21.2683 276.965 19.7198 286.268 19.5852 291.335C19.1962 305.772 17.498 330.538 22.5775 343.625H189.099Z" fill="#4F41BF"/>
<path d="M124.674 244.052L123.776 237.68C125.646 237.805 129.91 239.629 129.91 241.428C129.91 243.227 126.419 243.927 124.674 244.052Z" fill="#050504"/>
<path d="M82.0331 244.426L80.911 237.68C79.0408 237.805 75.6745 239.629 75.6745 241.428C75.6745 243.227 80.2876 244.301 82.0331 244.426Z" fill="#050504"/>
<path d="M108.843 164.414C106.781 166.32 103.808 165.86 101.893 164.047C98.3141 160.64 96.9988 154.097 100.608 150.249C100.859 149.963 101.043 149.626 101.149 149.261C101.255 148.895 101.279 148.511 101.22 148.136C100.902 145.495 97.8246 142.517 95.1757 142.248C91.0708 141.819 87.4919 143.265 84.0905 145.354C80.5178 147.572 77.1531 150.09 73.1766 151.53C63.1009 155.206 53.227 154.25 43.8119 149.49C34.2378 144.656 30.7079 136.807 33.1366 126.343C34.8618 118.911 39.6581 113.82 46.2223 110.309C50.1988 108.177 54.5423 107.307 59.0143 107C65.9272 106.535 72.626 107.209 78.7926 110.713C79.0016 110.87 79.2458 110.974 79.5039 111.014C79.762 111.055 80.0262 111.032 80.2731 110.946C84.9959 109.188 89.9329 109.151 94.8576 109.316C100.706 109.51 106.516 110.332 112.189 111.767C120.908 113.86 128.939 118.174 135.503 124.29C141.963 130.368 146.515 137.665 149.69 145.942C154.333 158.122 153.911 170.143 149.005 182.09C146.472 188.26 142.887 193.872 139.675 199.674C138.678 201.475 137.228 203.086 136.776 205.114C136.236 207.848 136.17 210.654 136.58 213.41C137.449 219.69 139.828 225.431 142.783 230.982C146.423 237.813 150.522 244.393 153.923 251.353C157.979 259.692 160.818 268.269 160.488 277.606C160.599 280.648 160.377 283.693 159.827 286.686C158.395 295.313 153.257 301.758 147.237 307.548C143.26 311.365 138.33 313.589 132.879 314.575C127.556 315.543 122.234 316.511 116.783 315.8C111.118 315.077 106.75 312.388 104.181 307.192C103.014 304.827 101.983 302.397 101.091 299.914C98.2101 291.949 99.1644 284.493 104.707 277.888C107.27 274.825 109.956 271.853 112.085 268.447C113.841 265.647 115.254 262.657 114.966 259.293C114.785 256.01 113.609 252.86 111.595 250.262C105.551 242.849 102.223 235.626 101.605 226.215C101.232 220.474 100.241 213.416 102.884 208.355C104.371 205.506 106.677 203.184 109.907 200.771C113.137 198.357 118.184 193.418 119.94 190.717C123.702 184.461 124.265 182.415 125.385 174.879C125.899 171.436 124.975 165.119 120.809 162.919C116.71 160.879 112.275 161.161 108.843 164.414Z" fill="#050504"/>
<path d="M271.098 211.203C265.014 211.019 246.962 205.287 243.374 202.643Z" fill="white"/>
<path d="M273.601 239.452C284.826 255.096 321.12 259.739 327.313 261.975C337.469 265.805 339.197 276.159 339.347 281.798C339.781 297.867 341.676 325.433 336.009 340" fill="white"/>
<path d="M273.601 239.452C266.791 227.238 271.098 211.203 271.098 211.203C271.098 211.203 284.292 211.828 289.583 209.134C299.757 204.77 311.841 188.81 311.716 165.958C311.427 145.379 307.08 125.059 298.922 106.163C291.561 87.1323 245.886 69.3448 211.477 102.584C211.477 102.584 192.924 119.537 203.699 147.712" fill="white"/>
<path d="M150.236 340C145.337 324.307 147.265 283.042 147.974 277.218C148.684 271.395 151.421 259.581 165.917 255.985C172.327 254.375 212.461 247.887 220.607 236.632" fill="white"/>
<path d="M222.576 194.083C222.576 194.083 209.098 186.432 203.724 170.48C198.349 154.528 203.699 147.712 203.699 147.712C208.013 141.279 225.18 139.702 225.18 159.108" fill="white"/>
<path d="M222.576 194.083C223.603 214.356 223.862 223.659 220.607 236.632Z" fill="white"/>
<path d="M273.601 239.452C284.826 255.096 321.12 259.739 327.313 261.975C337.469 265.805 339.197 276.159 339.347 281.798C339.781 297.867 341.676 325.433 336.009 340H150.236C145.337 324.307 147.265 283.042 147.974 277.218C148.684 271.395 151.421 259.581 165.917 255.985C172.327 254.375 212.461 247.887 220.607 236.632C223.862 223.659 223.603 214.356 222.576 194.083C222.576 194.083 209.098 186.432 203.724 170.48C198.349 154.528 203.699 147.712 203.699 147.712C192.924 119.537 211.477 102.584 211.477 102.584C245.886 69.3448 291.561 87.1323 298.922 106.163C307.08 125.059 311.427 145.379 311.716 165.958C311.841 188.81 299.757 204.77 289.583 209.134C284.292 211.828 271.098 211.203 271.098 211.203C271.098 211.203 266.791 227.238 273.601 239.452Z" fill="white"/>
<path d="M304.536 116.349C295.965 121.204 263.125 124.483 253.21 123.365C248.57 122.839 239.599 121.98 234.174 121.379C234.007 121.386 233.847 121.443 233.712 121.542C233.578 121.641 233.477 121.777 233.421 121.934C233.365 122.092 233.358 122.262 233.4 122.423C233.442 122.584 233.531 122.729 233.656 122.839C256.832 138.132 227.03 173.465 225.478 153.868C222.457 137.749 208.361 143.589 206.692 144.598C204.681 145.856 202.996 147.571 201.776 149.604C200.266 152.015 199.473 164.905 207.218 178.104C207.307 178.272 207.337 178.464 207.302 178.651C207.267 178.838 207.17 179.007 207.026 179.13L204.238 181.316C204.149 181.381 204.048 181.427 203.941 181.452C203.834 181.477 203.723 181.481 203.614 181.463C203.505 181.446 203.401 181.406 203.308 181.348C203.215 181.29 203.134 181.214 203.07 181.124C165.74 124.183 192.538 112.602 196.544 111.251C196.684 111.196 196.807 111.105 196.9 110.986C196.992 110.867 197.051 110.725 197.069 110.575C198.647 94.6314 208.636 76.2515 231.136 72.7391C243.221 70.7284 255.388 72.8809 262.641 75.7426H262.699C271.537 78.596 278.264 73.5651 286.159 65.9812C286.267 65.8773 286.396 65.7966 286.537 65.7443C286.678 65.6919 286.828 65.669 286.978 65.6768C287.128 65.6846 287.275 65.723 287.41 65.7897C287.544 65.8564 287.664 65.95 287.761 66.0646C291.174 70.1277 290.999 73.0144 289.806 75.509C289.755 75.651 289.743 75.8043 289.772 75.9524C289.801 76.1006 289.87 76.2381 289.971 76.3503C290.072 76.4624 290.202 76.5451 290.346 76.5894C290.49 76.6337 290.644 76.6381 290.791 76.602C297.959 73.9822 313.666 77.0942 319.658 72.8809C319.772 72.8113 319.901 72.7701 320.035 72.7608C320.168 72.7515 320.302 72.7744 320.425 72.8276C320.547 72.8807 320.655 72.9626 320.74 73.0662C320.824 73.1699 320.883 73.2923 320.91 73.4232C323.422 92.8543 316.362 109.841 304.536 116.349Z" fill="#050504"/>
<mask id="mask1_1748_171" style="mask-type:alpha" maskUnits="userSpaceOnUse" x="148" y="230" width="191" height="109">
<path d="M216.984 241.813C217.787 238.378 217.951 234.418 217.617 230.161C217.791 230.241 217.97 230.319 218.152 230.396C220.013 231.177 222.434 231.849 225.241 232.4C230.867 233.505 238.265 234.168 246.337 234.168C254.438 234.168 261.859 233.5 267.492 232.389C270.302 231.834 272.724 231.158 274.58 230.371C274.699 230.321 274.816 230.27 274.932 230.218C274.473 234.679 274.63 239.119 275.476 243.624C275.542 243.979 275.722 244.303 275.989 244.547C283.194 251.142 294.678 255.272 304.817 258.006C309.925 259.384 314.771 260.427 318.671 261.249L319.537 261.431C323.057 262.173 325.553 262.698 326.738 263.124C335.842 266.564 337.534 275.887 337.681 281.427C337.738 283.526 337.819 285.809 337.905 288.225L337.905 288.226C338.149 295.126 338.433 303.113 338.3 311.018C338.128 321.196 337.264 330.976 334.848 337.915H151.492C149.396 330.133 148.714 316.881 148.674 304.486C148.632 291.504 149.292 279.813 149.634 277.003C149.976 274.196 150.796 270.066 153.193 266.234C155.56 262.452 159.515 258.876 166.322 257.188L166.327 257.186C167.35 256.929 169.294 256.561 171.93 256.061C172.694 255.916 173.517 255.76 174.391 255.592C178.238 254.856 183.004 253.914 188.026 252.751C197.998 250.442 209.228 247.207 216.24 242.85C216.615 242.617 216.883 242.244 216.984 241.813Z" fill="#C4C4C4"/>
</mask>
<g mask="url(#mask1_1748_171)">
<path d="M147.836 214.153C147.836 214.153 207.342 241.291 245.48 241.268C282.314 241.246 339.785 214.153 339.785 214.153V225.833C339.785 225.833 282.312 250.846 245.48 250.863C207.345 250.88 147.836 226.667 147.836 226.667V214.153Z" fill="white"/>
<path d="M147.836 239.182C147.836 239.182 207.342 257.977 245.48 257.954C282.314 257.932 339.785 239.182 339.785 239.182V250.863C339.785 250.863 282.311 267.532 245.48 267.549C207.344 267.566 147.836 251.697 147.836 251.697V239.182Z" fill="white"/>
<path d="M147.836 255.868C147.836 255.868 207.342 274.663 245.48 274.64C282.314 274.618 339.785 255.868 339.785 255.868V267.549C339.785 267.549 282.311 284.218 245.48 284.235C207.344 284.252 147.836 268.383 147.836 268.383V255.868Z" fill="white"/>
<path d="M147.836 273.389C147.836 273.389 207.342 292.184 245.48 292.161C282.314 292.139 339.785 273.389 339.785 273.389V285.069C339.785 285.069 282.311 301.739 245.48 301.755C207.344 301.773 147.836 285.904 147.836 285.904V273.389Z" fill="white"/>
<path d="M147.836 293.412C147.836 293.412 207.342 308.87 245.48 308.847C282.314 308.825 339.785 294.247 339.785 294.247V305.927C339.785 305.927 282.311 318.425 245.48 318.442C207.344 318.459 147.836 305.927 147.836 305.927V293.412Z" fill="white"/>
<path d="M147.836 313.436C147.836 313.436 207.342 323.888 245.48 323.865C282.314 323.842 339.785 313.436 339.785 313.436V325.116C339.785 325.116 282.311 333.443 245.48 333.459C207.344 333.477 147.836 325.951 147.836 325.951V313.436Z" fill="white"/>
</g>
<path d="M150.236 339.583C145.337 323.89 147.265 282.625 147.974 276.801C148.684 270.978 151.421 259.164 165.917 255.568C171.443 254.18 201.856 249.821 215.356 241.433C216.336 237.244 216.32 232.12 215.532 226.496C217.19 229.87 230.349 232.499 246.335 232.499C262.376 232.499 275.57 229.852 277.154 226.461C276.115 232.112 276.053 237.663 277.113 243.316C290.88 255.918 321.643 259.511 327.313 261.558C337.469 265.388 339.197 275.742 339.347 281.382C339.781 297.45 341.676 325.016 336.009 339.583H150.236Z" fill="#6353E4"/>
<path d="M222.111 228.753L223.113 221.662C221.027 221.801 216.27 223.831 216.27 225.833C216.27 227.836 220.164 228.614 222.111 228.753Z" fill="#050504"/>
<path d="M269.681 229.17L270.933 221.662C273.02 221.801 276.775 223.831 276.775 225.833C276.775 227.836 271.629 229.031 269.681 229.17Z" fill="#050504"/>
</g>
<defs>
<linearGradient id="paint0_linear_1748_171" x1="170" y1="0" x2="170" y2="340" gradientUnits="userSpaceOnUse">
<stop stop-color="#79FEFE"/>
<stop offset="1" stop-color="white"/>
</linearGradient>
<clipPath id="clip0_1748_171">
<rect width="340" height="340" rx="170" fill="white"/>
</clipPath>
</defs>
</svg>
