<svg width="40" height="40" viewBox="0 0 340 340" fill="none" xmlns="http://www.w3.org/2000/svg">
<g clip-path="url(#clip0_1748_226)">
<rect width="340" height="340" rx="170" fill="url(#paint0_linear_1748_226)"/>
<g clip-path="url(#clip1_1748_226)">
<path d="M169.622 295.379C207.034 295.379 237.362 263.239 237.362 223.591C237.362 183.944 207.034 151.804 169.622 151.804C132.211 151.804 101.883 183.944 101.883 223.591C101.883 263.239 132.211 295.379 169.622 295.379Z" fill="#6353E4"/>
<path d="M170.286 340.29L148.885 301.547L127.484 262.805L169.845 262.535L212.205 262.265L191.245 301.277L170.286 340.29Z" fill="#6C63FF"/>
<path d="M170.171 248.896C183.594 248.896 194.475 237.365 194.475 223.14C194.475 208.915 183.594 197.383 170.171 197.383C156.748 197.383 145.867 208.915 145.867 223.14C145.867 237.365 156.748 248.896 170.171 248.896Z" fill="white"/>
<path d="M168.058 51.1545C168.058 51.1545 153.563 46.8274 149.276 67.8137C144.989 88.8 147.712 86.1558 147.712 86.1558L180.07 82.1533C180.07 82.1533 189.8 57.5369 168.058 51.1545Z" fill="#2F2E41"/>
<path d="M146.979 143.222C146.979 143.222 125.111 144.295 128.898 153.392C129.165 154.035 129.415 154.637 129.645 155.199C132.352 161.788 135.468 168.18 138.972 174.332L152.413 197.932L157.303 195.052L143.54 157.137L155.911 156.067L146.979 143.222Z" fill="#FFB6B6"/>
<path d="M204.641 152.856L211.71 169.177C211.71 169.177 217.012 174.795 222.818 197.27C228.625 219.744 229.887 218.941 229.887 218.941L224.148 220.967L200.602 175.598L188.988 160.08L192.523 151.786L204.641 152.856Z" fill="#FFB6B6"/>
<path d="M196.053 134.128L206.21 154.164C206.21 154.164 229.24 202.122 226.86 201.963C224.185 201.784 216.669 205.089 214.362 208.298C213.248 209.846 196.972 172.016 191.256 163.558L178.885 153.391C178.885 153.391 143.761 159.656 143.718 157.619C143.697 156.621 155.347 180.564 152.956 179.503C150.232 178.294 143.825 184.176 141.001 182.958C139.835 182.456 131.601 161.298 128.268 152.628C127.85 151.546 127.828 150.337 128.207 149.239C128.586 148.141 129.338 147.232 130.316 146.691C132.821 145.31 167.628 136.887 167.628 136.887L167.019 133.593L169.544 128.242L196.053 134.128Z" fill="#2F2E41"/>
<path d="M175.226 75.0645C176.097 69.3761 172.452 64.0164 167.084 63.0934C161.717 62.1703 156.659 66.0333 155.788 71.7217C154.917 77.4101 158.562 82.7698 163.93 83.6929C169.297 84.616 174.355 80.7529 175.226 75.0645Z" fill="white"/>
<path d="M196.971 135.735C197.515 137.464 193.994 138.457 189.086 137.485C184.84 136.645 180.192 135.647 176.526 134.839C172.6 133.972 169.795 133.325 169.795 133.325C169.795 133.325 168.786 140.014 165.504 139.211C162.676 138.521 154.226 107.242 151.941 98.597C151.774 97.9657 151.807 97.294 152.033 96.684C152.26 96.074 152.668 95.5591 153.196 95.2178L164.802 87.7076C164.802 87.7076 172.8 84.7966 175.716 84.7137C178.632 84.6308 183.681 83.8281 183.681 83.8281C183.681 83.8281 189.488 84.3632 190.497 88.9116C191.507 93.4599 195.721 120.428 195.799 126.904C195.885 134.008 195.341 130.552 196.971 135.735Z" fill="#6353E4"/>
<path d="M169.185 59.9902C169.185 59.9902 165.102 71.457 155.098 76.2167L153.465 66.0481L169.185 59.9902Z" fill="#2F2E41"/>
<path d="M175.096 72.1899C175.862 72.1899 176.484 70.9321 176.484 69.3806C176.484 67.829 175.862 66.5713 175.096 66.5713C174.329 66.5713 173.707 67.829 173.707 69.3806C173.707 70.9321 174.329 72.1899 175.096 72.1899Z" fill="white"/>
<path d="M161.372 200.607L141.854 210.116L141.741 209.855C140.815 207.72 140.727 205.282 141.496 203.078C142.266 200.874 143.83 199.084 145.845 198.103L145.845 198.102L157.766 192.294L161.372 200.607Z" fill="#2F2E41"/>
<path d="M221.23 219.605L233.203 213.917L233.203 213.917C235.227 212.956 237.528 212.886 239.6 213.723C241.672 214.559 243.346 216.234 244.253 218.378L244.364 218.641L224.762 227.953L221.23 219.605Z" fill="#2F2E41"/>
<path opacity="0.2" d="M188.821 110.972L186.535 137.613L190.598 137.817L188.821 110.972Z" fill="black"/>
<path d="M172.889 160.742C173.373 160.169 173.733 159.49 173.943 158.754C174.153 158.018 174.208 157.242 174.104 156.48C174.001 155.719 173.741 154.991 173.343 154.348C172.945 153.704 172.419 153.161 171.802 152.757L163.021 105.749L152.938 109.837L164.74 154.759C164.167 155.903 164.01 157.23 164.299 158.488C164.588 159.746 165.302 160.848 166.307 161.586C167.311 162.323 168.536 162.645 169.749 162.489C170.962 162.333 172.079 161.712 172.889 160.742Z" fill="white"/>
<path d="M165.249 113.672L154.177 115.738C153.862 115.797 153.538 115.783 153.229 115.698C152.919 115.612 152.631 115.457 152.383 115.243C152.135 115.028 151.934 114.76 151.793 114.455C151.652 114.151 151.574 113.818 151.565 113.479L151.26 101.605C150.985 99.8954 151.361 98.1396 152.306 96.7232C153.25 95.3067 154.687 94.345 156.3 94.0492C157.912 93.7533 159.57 94.1473 160.909 95.1448C162.248 96.1423 163.159 97.6618 163.443 99.3703L166.975 110.603C167.076 110.925 167.11 111.266 167.076 111.603C167.041 111.94 166.939 112.265 166.775 112.556C166.611 112.847 166.39 113.098 166.127 113.29C165.863 113.483 165.564 113.613 165.249 113.672H165.249Z" fill="#6353E4"/>
<path d="M181.38 159.914C182.012 159.536 182.558 159.016 182.979 158.39C183.401 157.764 183.688 157.048 183.821 156.291C183.953 155.535 183.927 154.757 183.745 154.013C183.563 153.268 183.229 152.575 182.767 151.982L188.673 104.473L177.885 104.918L175.471 151.478C174.583 152.367 174.033 153.571 173.925 154.861C173.818 156.151 174.161 157.438 174.89 158.477C175.618 159.517 176.681 160.238 177.877 160.503C179.073 160.768 180.319 160.558 181.38 159.914V159.914Z" fill="white"/>
<path d="M188.377 112.732L177.264 110.927C176.948 110.875 176.646 110.752 176.378 110.566C176.111 110.38 175.885 110.135 175.715 109.848C175.545 109.56 175.435 109.238 175.394 108.902C175.352 108.565 175.38 108.224 175.474 107.9L178.777 96.5488C179.034 94.8358 179.922 93.3006 181.245 92.28C182.569 91.2594 184.22 90.8367 185.837 91.1045C187.454 91.3723 188.905 92.3088 189.872 93.7086C190.838 95.1085 191.242 96.8574 190.993 98.5719L190.94 110.412C190.938 110.751 190.868 111.086 190.733 111.393C190.598 111.701 190.403 111.974 190.16 112.194C189.916 112.414 189.631 112.576 189.323 112.669C189.016 112.762 188.693 112.783 188.377 112.732V112.732Z" fill="#6353E4"/>
</g>
</g>
<defs>
<linearGradient id="paint0_linear_1748_226" x1="170" y1="0" x2="170" y2="340" gradientUnits="userSpaceOnUse">
<stop stop-color="#79FEFE"/>
<stop offset="1" stop-color="white"/>
</linearGradient>
<clipPath id="clip0_1748_226">
<rect width="340" height="340" rx="170" fill="white"/>
</clipPath>
<clipPath id="clip1_1748_226">
<rect width="495" height="406" fill="white" transform="translate(-134 -59)"/>
</clipPath>
</defs>
</svg>
