<svg width="40" height="40" viewBox="0 0 340 340" fill="none" xmlns="http://www.w3.org/2000/svg">
<g clip-path="url(#clip0_1748_166)">
<rect width="340" height="340" rx="170" fill="url(#paint0_linear_1748_166)"/>
<path d="M197.098 211.203C191.014 211.019 172.962 205.287 169.374 202.643L197.098 211.203Z" fill="white"/>
<path d="M199.601 239.452C210.826 255.096 247.12 259.739 253.313 261.975C263.469 265.805 265.197 276.159 265.347 281.798C265.781 297.867 267.676 325.433 262.009 340" fill="white"/>
<path d="M199.601 239.452C192.791 227.238 197.098 211.203 197.098 211.203C197.098 211.203 210.292 211.828 215.583 209.134C225.757 204.77 237.841 188.81 237.716 165.958C237.427 145.379 233.08 125.059 224.922 106.163C217.561 87.1323 171.886 69.3448 137.477 102.584C137.477 102.584 118.924 119.537 129.699 147.712" fill="white"/>
<path d="M76.2358 340C71.3369 324.307 73.2648 283.042 73.9742 277.218C74.6835 271.395 77.4209 259.581 91.9172 255.985C98.3267 254.375 138.461 247.887 146.607 236.632" fill="white"/>
<path d="M148.576 194.083C148.576 194.083 135.098 186.432 129.724 170.48C124.349 154.528 129.699 147.712 129.699 147.712C134.013 141.279 151.18 139.702 151.18 159.108" fill="white"/>
<path d="M148.576 194.083C149.603 214.356 149.862 223.659 146.607 236.632L148.576 194.083Z" fill="white"/>
<path d="M199.601 239.452C210.826 255.096 247.12 259.739 253.313 261.975C263.469 265.805 265.197 276.159 265.347 281.798C265.781 297.867 267.676 325.433 262.009 340H76.2358C71.3369 324.307 73.2648 283.042 73.9742 277.218C74.6835 271.395 77.4209 259.581 91.9172 255.985C98.3267 254.375 138.461 247.887 146.607 236.632C149.862 223.659 149.603 214.356 148.576 194.083C148.576 194.083 135.098 186.432 129.724 170.48C124.349 154.528 129.699 147.712 129.699 147.712C118.924 119.537 137.477 102.584 137.477 102.584C171.886 69.3448 217.561 87.1323 224.922 106.163C233.08 125.059 237.427 145.379 237.716 165.958C237.841 188.81 225.757 204.77 215.583 209.134C210.292 211.828 197.098 211.203 197.098 211.203C197.098 211.203 192.791 227.238 199.601 239.452Z" fill="white"/>
<path d="M230.536 116.348C221.965 121.204 189.125 124.483 179.21 123.365C174.57 122.839 165.599 121.98 160.174 121.379C160.007 121.386 159.847 121.442 159.712 121.541C159.578 121.64 159.477 121.777 159.421 121.934C159.365 122.091 159.358 122.261 159.4 122.423C159.442 122.584 159.531 122.729 159.656 122.839C182.832 138.132 153.03 173.465 151.478 153.867C148.457 137.748 134.361 143.588 132.692 144.598C130.681 145.855 128.996 147.571 127.776 149.604C126.266 152.015 125.473 164.905 133.218 178.104C133.307 178.271 133.337 178.464 133.302 178.651C133.267 178.837 133.17 179.006 133.026 179.13L130.238 181.316C130.149 181.38 130.048 181.426 129.941 181.452C129.834 181.477 129.723 181.481 129.614 181.463C129.505 181.445 129.401 181.406 129.308 181.348C129.215 181.29 129.134 181.214 129.07 181.124C91.7398 124.182 118.538 112.602 122.544 111.25C122.684 111.196 122.807 111.104 122.9 110.985C122.992 110.866 123.051 110.724 123.069 110.575C124.647 94.6309 134.636 76.2511 157.136 72.7386C169.221 70.7279 181.388 72.8804 188.641 75.7421H188.699C197.537 78.5955 204.264 73.5646 212.159 65.9807C212.267 65.8768 212.396 65.7962 212.537 65.7438C212.678 65.6915 212.828 65.6685 212.978 65.6763C213.128 65.6841 213.275 65.7226 213.41 65.7893C213.544 65.8559 213.664 65.9495 213.761 66.0641C217.174 70.1272 216.999 73.0139 215.806 75.5085C215.755 75.6505 215.743 75.8038 215.772 75.952C215.801 76.1001 215.87 76.2376 215.971 76.3498C216.072 76.4619 216.202 76.5446 216.346 76.5889C216.49 76.6332 216.644 76.6376 216.791 76.6015C223.959 73.9817 239.666 77.0937 245.658 72.8804C245.772 72.8108 245.901 72.7696 246.035 72.7603C246.168 72.751 246.302 72.7739 246.425 72.8271C246.547 72.8802 246.655 72.9621 246.74 73.0658C246.824 73.1694 246.883 73.2918 246.91 73.4227C249.422 92.8538 242.362 109.84 230.536 116.348Z" fill="#050504"/>
<mask id="mask0_1748_166" style="mask-type:alpha" maskUnits="userSpaceOnUse" x="74" y="230" width="191" height="108">
<path d="M142.984 241.813C143.787 238.377 143.951 234.417 143.617 230.16C143.791 230.24 143.97 230.319 144.152 230.395C146.013 231.177 148.434 231.849 151.241 232.4C156.867 233.504 164.265 234.168 172.337 234.168C180.438 234.168 187.859 233.5 193.492 232.388C196.302 231.834 198.724 231.158 200.58 230.371C200.699 230.32 200.816 230.269 200.932 230.217C200.473 234.678 200.63 239.118 201.476 243.624C201.542 243.979 201.722 244.303 201.989 244.547C209.194 251.142 220.678 255.271 230.817 258.006C235.925 259.383 240.771 260.426 244.671 261.249L245.537 261.431C249.057 262.172 251.553 262.698 252.738 263.124C261.842 266.563 263.534 275.887 263.681 281.426C263.738 283.525 263.819 285.808 263.905 288.224L263.905 288.225C264.149 295.125 264.433 303.113 264.3 311.017C264.128 321.195 263.264 330.975 260.848 337.914H77.4924C75.3961 330.132 74.7135 316.88 74.6738 304.485C74.6321 291.504 75.2916 279.812 75.6338 277.003C75.9757 274.196 76.7956 270.065 79.1934 266.234C81.5604 262.451 85.5148 258.876 92.3219 257.187L92.3268 257.186C93.3502 256.929 95.2942 256.56 97.93 256.06C98.6942 255.915 99.5166 255.759 100.392 255.592C104.238 254.856 109.004 253.914 114.026 252.751C123.998 250.441 135.228 247.207 142.24 242.85C142.615 242.616 142.883 242.243 142.984 241.813Z" fill="#C4C4C4"/>
</mask>
<g mask="url(#mask0_1748_166)">
<path d="M73.8362 214.152C73.8362 214.152 133.342 241.291 171.48 241.267C208.314 241.245 265.785 214.152 265.785 214.152V225.833C265.785 225.833 208.312 250.845 171.48 250.862C133.345 250.879 73.8362 226.667 73.8362 226.667V214.152Z" fill="white"/>
<path d="M73.8359 239.182C73.8359 239.182 133.342 257.977 171.48 257.954C208.314 257.931 265.785 239.182 265.785 239.182V250.862C265.785 250.862 208.311 267.532 171.48 267.548C133.344 267.566 73.8359 251.696 73.8359 251.696V239.182Z" fill="white"/>
<path d="M73.8359 255.868C73.8359 255.868 133.342 274.663 171.48 274.64C208.314 274.618 265.785 255.868 265.785 255.868V267.548C265.785 267.548 208.311 284.218 171.48 284.234C133.344 284.252 73.8359 268.383 73.8359 268.383V255.868Z" fill="white"/>
<path d="M73.8359 273.388C73.8359 273.388 133.342 292.183 171.48 292.16C208.314 292.138 265.785 273.388 265.785 273.388V285.069C265.785 285.069 208.311 301.738 171.48 301.755C133.344 301.772 73.8359 285.903 73.8359 285.903V273.388Z" fill="white"/>
<path d="M73.8359 293.412C73.8359 293.412 133.342 308.87 171.48 308.847C208.314 308.824 265.785 294.246 265.785 294.246V305.927C265.785 305.927 208.311 318.425 171.48 318.441C133.344 318.459 73.8359 305.927 73.8359 305.927V293.412Z" fill="white"/>
<path d="M73.8359 313.435C73.8359 313.435 133.342 323.887 171.48 323.864C208.314 323.842 265.785 313.435 265.785 313.435V325.116C265.785 325.116 208.311 333.442 171.48 333.459C133.344 333.476 73.8359 325.95 73.8359 325.95V313.435Z" fill="white"/>
</g>
<path d="M76.2358 339.583C71.3369 323.889 73.2648 282.624 73.9741 276.801C74.6835 270.977 77.4209 259.163 91.9172 255.567C97.4431 254.179 127.856 249.821 141.356 241.433C142.336 237.243 142.32 232.12 141.532 226.495C143.19 229.869 156.349 232.499 172.335 232.499C188.376 232.499 201.57 229.851 203.154 226.461C202.115 232.112 202.053 237.662 203.113 243.316C216.88 255.917 247.643 259.51 253.313 261.558C263.469 265.387 265.197 275.741 265.347 281.381C265.781 297.45 267.676 325.016 262.009 339.583H76.2358Z" fill="#6353E4"/>
<path d="M148.111 228.753L149.113 221.661C147.027 221.8 142.27 223.83 142.27 225.833C142.27 227.835 146.164 228.614 148.111 228.753Z" fill="#050504"/>
<path d="M195.681 229.17L196.933 221.661C199.02 221.8 202.775 223.83 202.775 225.833C202.775 227.835 197.629 229.031 195.681 229.17Z" fill="#050504"/>
</g>
<defs>
<linearGradient id="paint0_linear_1748_166" x1="170" y1="0" x2="170" y2="340" gradientUnits="userSpaceOnUse">
<stop stop-color="#79FEFE"/>
<stop offset="1" stop-color="white"/>
</linearGradient>
<clipPath id="clip0_1748_166">
<rect width="340" height="340" rx="170" fill="white"/>
</clipPath>
</defs>
</svg>
