<svg width="133" height="158" viewBox="0 0 133 158" fill="none" xmlns="http://www.w3.org/2000/svg">
<path d="M73.6745 125.413C81.1146 125.413 87.1459 113.094 87.1459 97.8987C87.1459 82.7032 81.1146 70.3848 73.6745 70.3848C66.2345 70.3848 60.2031 82.7032 60.2031 97.8987C60.2031 113.094 66.2345 125.413 73.6745 125.413Z" fill="#3F3D56"/>
<path d="M72.4328 142.935C77.8283 110.531 72.4871 78.2454 72.4326 77.9233L71.3831 78.1013C71.4374 78.4218 76.7478 110.538 71.3828 142.76L72.4328 142.935Z" fill="#CACACA"/>
<path d="M61.8146 91.9824L61.3125 92.9221L73.4943 99.4443L73.9964 98.5046L61.8146 91.9824Z" fill="#CACACA"/>
<path d="M86.3522 95.2495L74.1719 101.775L74.6743 102.715L86.8546 96.1891L86.3522 95.2495Z" fill="#CACACA"/>
<path d="M106.044 108.168C120.596 108.168 132.392 84.0746 132.392 54.354C132.392 24.6334 120.596 0.540039 106.044 0.540039C91.4919 0.540039 79.6953 24.6334 79.6953 54.354C79.6953 84.0746 91.4919 108.168 106.044 108.168Z" fill="#E6E6E6"/>
<path d="M103.109 142.355C113.647 79.0621 103.215 15.9995 103.108 15.3699L102.059 15.5478C102.165 16.1759 112.567 79.0689 102.059 142.18L103.109 142.355Z" fill="#CACACA"/>
<path d="M82.6076 43.2312L82.1055 44.1709L105.932 56.9278L106.434 55.9881L82.6076 43.2312Z" fill="#CACACA"/>
<path d="M131.077 49.6217L107.254 62.3853L107.756 63.3248L131.579 50.5613L131.077 49.6217Z" fill="#CACACA"/>
<path d="M34.515 157.072C37.6147 157.072 40.1276 154.557 40.1276 151.454C40.1276 148.351 37.6147 145.836 34.515 145.836C31.4152 145.836 28.9023 148.351 28.9023 151.454C28.9023 154.557 31.4152 157.072 34.515 157.072Z" fill="#6C63FF"/>
<path d="M35.1849 118.079C54.3063 118.079 69.8073 102.563 69.8073 83.4233C69.8073 64.2832 54.3063 48.7671 35.1849 48.7671C16.0635 48.7671 0.5625 64.2832 0.5625 83.4233C0.5625 102.563 16.0635 118.079 35.1849 118.079Z" fill="#6C63FF"/>
<path d="M35.5247 139.761L24.5866 121.057L13.6484 102.354L35.2992 102.224L56.95 102.093L46.2373 120.927L35.5247 139.761Z" fill="#6C63FF"/>
<path d="M35.465 95.6395C42.3254 95.6395 47.887 90.0725 47.887 83.2054C47.887 76.3382 42.3254 70.7712 35.465 70.7712C28.6045 70.7712 23.043 76.3382 23.043 83.2054C23.043 90.0725 28.6045 95.6395 35.465 95.6395Z" fill="white"/>
<path d="M34.3857 0.178075C34.3857 0.178075 26.9772 -1.91086 24.786 8.22044C22.5947 18.3517 23.9865 17.0752 23.9865 17.0752L40.5251 15.143C40.5251 15.143 45.4984 3.25924 34.3857 0.178075Z" fill="#2F2E41"/>
<path d="M23.6111 44.6245C23.6111 44.6245 12.4342 45.1424 14.3697 49.5339C14.5066 49.8443 14.6339 50.1352 14.7519 50.4064C16.1354 53.5873 17.728 56.6729 19.5191 59.643L26.3885 71.036L28.8882 69.6459L21.8539 51.3422L28.1766 50.8256L23.6111 44.6245Z" fill="#FFB6B6"/>
<path d="M53.0823 49.2754L56.6954 57.1543C56.6954 57.1543 59.4051 59.8667 62.373 70.7164C65.3408 81.566 65.986 81.1785 65.986 81.1785L63.0525 82.1565L51.0177 60.2542L45.082 52.7628L46.8885 48.7588L53.0823 49.2754Z" fill="#FFB6B6"/>
<path d="M48.6933 40.2341L53.8851 49.9067C53.8851 49.9067 65.6559 73.0589 64.4394 72.982C63.0718 72.8956 59.2306 74.4912 58.0512 76.0402C57.482 76.7879 49.1634 58.5252 46.2415 54.442L39.9187 49.5338C39.9187 49.5338 21.9664 52.5583 21.9444 51.5748C21.9336 51.0931 27.8881 62.6516 26.6661 62.1394C25.274 61.556 21.9993 64.3952 20.5557 63.8075C19.96 63.5651 15.7514 53.351 14.0477 49.1655C13.8339 48.643 13.8228 48.0595 14.0165 47.5292C14.2102 46.999 14.5947 46.5603 15.0947 46.299C16.3751 45.6324 34.1652 41.5663 34.1652 41.5663L33.854 39.9758L35.1444 37.3926L48.6933 40.2341Z" fill="#2F2E41"/>
<path d="M38.0496 11.7206C38.4948 8.97444 36.6317 6.38701 33.8882 5.94139C31.1448 5.49576 28.5599 7.36068 28.1147 10.1068C27.6695 12.8529 29.5326 15.4404 32.276 15.886C35.0195 16.3316 37.6044 14.4667 38.0496 11.7206Z" fill="#FFD8C8"/>
<path d="M49.163 41.0103C49.4409 41.8447 47.6412 42.3241 45.1327 41.8552C42.9624 41.4496 40.5868 40.9678 38.7132 40.5778C36.7066 40.1593 35.2731 39.8467 35.2731 39.8467C35.2731 39.8467 34.7569 43.0758 33.0794 42.6883C31.6342 42.355 27.3154 27.2547 26.1476 23.0814C26.0622 22.7767 26.0787 22.4524 26.1945 22.1579C26.3103 21.8635 26.519 21.6149 26.7889 21.4501L32.7207 17.8245C32.7207 17.8245 36.8086 16.4192 38.2989 16.3792C39.7893 16.3392 42.3701 15.9517 42.3701 15.9517C42.3701 15.9517 45.3379 16.21 45.8541 18.4057C46.3702 20.6015 48.524 33.6204 48.5638 36.7468C48.6075 40.1762 48.3298 38.5081 49.163 41.0103Z" fill="#CACACA"/>
<path d="M34.9603 4.44336C34.9603 4.44336 32.8734 9.97902 27.7605 12.2768L26.9258 7.36786L34.9603 4.44336Z" fill="#2F2E41"/>
<path d="M37.9831 10.333C38.3751 10.333 38.6928 9.72582 38.6928 8.97681C38.6928 8.2278 38.3751 7.62061 37.9831 7.62061C37.5912 7.62061 37.2734 8.2278 37.2734 8.97681C37.2734 9.72582 37.5912 10.333 37.9831 10.333Z" fill="#FFB6B6"/>
<path d="M30.9674 72.3274L20.9916 76.9182L20.9336 76.7919C20.4602 75.7611 20.4153 74.5843 20.8086 73.5203C21.202 72.4564 22.0015 71.5924 23.0312 71.1184L23.0314 71.1183L29.1243 68.3145L30.9674 72.3274Z" fill="#2F2E41"/>
<path d="M61.5625 81.4989L67.6817 78.7531L67.6819 78.753C68.7162 78.2891 69.8922 78.2553 70.9513 78.6592C72.0104 79.0631 72.8659 79.8716 73.3295 80.9068L73.3863 81.0336L63.3675 85.5292L61.5625 81.4989Z" fill="#2F2E41"/>
<path opacity="0.2" d="M44.9963 29.0554L43.8281 41.9167L45.9048 42.0148L44.9963 29.0554Z" fill="black"/>
<path d="M36.8534 53.0823C37.1009 52.8057 37.2849 52.4782 37.3922 52.1227C37.4996 51.7673 37.5278 51.3926 37.4749 51.0251C37.4219 50.6576 37.2891 50.3062 37.0858 49.9956C36.8825 49.685 36.6136 49.4228 36.2982 49.2275L31.8101 26.5342L26.6562 28.5079L32.6885 50.194C32.3958 50.7463 32.3156 51.3868 32.4632 51.9943C32.6108 52.6017 32.9759 53.1339 33.4893 53.4899C34.0027 53.8459 34.6287 54.0011 35.2488 53.926C35.8688 53.8508 36.4397 53.5506 36.8534 53.0823Z" fill="#FFD8C8"/>
<path d="M32.9488 30.3586L27.2897 31.3563C27.1287 31.3847 26.9634 31.378 26.8052 31.3367C26.647 31.2954 26.4996 31.2205 26.3729 31.117C26.2462 31.0135 26.1433 30.8839 26.0712 30.737C25.9991 30.5902 25.9595 30.4294 25.955 30.2658L25.7988 24.5335C25.6583 23.708 25.8505 22.8604 26.3334 22.1766C26.8163 21.4928 27.5504 21.0286 28.3747 20.8857C29.199 20.7429 30.0463 20.9331 30.7307 21.4146C31.4151 21.8962 31.8808 22.6298 32.0257 23.4545L33.831 28.8773C33.8826 29.0326 33.9002 29.1972 33.8826 29.3599C33.8649 29.5226 33.8125 29.6795 33.7288 29.8201C33.6451 29.9607 33.5321 30.0816 33.3975 30.1745C33.2629 30.2674 33.1099 30.3302 32.9488 30.3586H32.9488Z" fill="#CACACA"/>
<path d="M41.1947 52.6829C41.5177 52.5004 41.7969 52.2492 42.0124 51.947C42.228 51.6448 42.3747 51.299 42.4423 50.9339C42.5099 50.5688 42.4967 50.1933 42.4036 49.8338C42.3105 49.4744 42.1399 49.1397 41.9036 48.8535L44.9223 25.918L39.4083 26.1332L38.1749 48.6104C37.7207 49.0395 37.4396 49.6205 37.3848 50.2433C37.3301 50.866 37.5054 51.4873 37.8776 51.9893C38.2499 52.4913 38.7931 52.8391 39.4045 52.967C40.0158 53.0948 40.6528 52.9938 41.1947 52.6829V52.6829Z" fill="#FFD8C8"/>
<path d="M44.7703 29.905L39.0904 29.0336C38.9288 29.0088 38.7744 28.9494 38.6378 28.8595C38.5011 28.7696 38.3855 28.6513 38.2987 28.5126C38.2118 28.3739 38.1559 28.2182 38.1347 28.0559C38.1134 27.8936 38.1273 27.7287 38.1755 27.5723L39.8639 22.0925C39.9952 21.2655 40.4489 20.5244 41.1253 20.0317C41.8017 19.539 42.6458 19.3349 43.4723 19.4642C44.2988 19.5935 45.0404 20.0456 45.5345 20.7214C46.0285 21.3972 46.2346 22.2415 46.1076 23.0692L46.0804 28.785C46.0796 28.9487 46.0435 29.1102 45.9747 29.2587C45.9059 29.4071 45.8059 29.539 45.6816 29.6453C45.5572 29.7515 45.4115 29.8298 45.2542 29.8746C45.097 29.9194 44.9319 29.9298 44.7703 29.905V29.905Z" fill="#CACACA"/>
</svg>
