<svg viewBox="0 0 21 21" fill="none" xmlns="http://www.w3.org/2000/svg">
<path d="M1.5 8.25H8.25C8.54837 8.25 8.83452 8.36853 9.04549 8.57951C9.25647 8.79048 9.375 9.07663 9.375 9.375V19.5C9.375 19.7984 9.25647 20.0845 9.04549 20.2955C8.83452 20.5065 8.54837 20.625 8.25 20.625H1.5C1.20163 20.625 0.915483 20.5065 0.704505 20.2955C0.493526 20.0845 0.375 19.7984 0.375 19.5V9.375C0.375 9.07663 0.493526 8.79048 0.704505 8.57951C0.915483 8.36853 1.20163 8.25 1.5 8.25ZM0.375 1.5C0.375 1.20163 0.493526 0.915484 0.704505 0.704505C0.915483 0.493527 1.20163 0.375 1.5 0.375H8.25C8.54837 0.375 8.83452 0.493527 9.04549 0.704505C9.25647 0.915484 9.375 1.20163 9.375 1.5V4.875C9.375 5.17337 9.25647 5.45952 9.04549 5.6705C8.83452 5.88147 8.54837 6 8.25 6H1.5C1.20163 6 0.915483 5.88147 0.704505 5.6705C0.493526 5.45952 0.375 5.17337 0.375 4.875V1.5ZM11.625 1.5C11.625 1.20163 11.7435 0.915484 11.9545 0.704505C12.1655 0.493527 12.4516 0.375 12.75 0.375H19.5C19.7984 0.375 20.0845 0.493527 20.2955 0.704505C20.5065 0.915484 20.625 1.20163 20.625 1.5V11.8378C20.625 12.1362 20.5065 12.4224 20.2955 12.6333C20.0845 12.8443 19.7984 12.9628 19.5 12.9628H12.75C12.4516 12.9628 12.1655 12.8443 11.9545 12.6333C11.7435 12.4224 11.625 12.1362 11.625 11.8378V1.5ZM12.75 15.2128H19.5C19.7984 15.2128 20.0845 15.3314 20.2955 15.5423C20.5065 15.7533 20.625 16.0395 20.625 16.3378V19.5C20.625 19.7984 20.5065 20.0845 20.2955 20.2955C20.0845 20.5065 19.7984 20.625 19.5 20.625H12.75C12.4516 20.625 12.1655 20.5065 11.9545 20.2955C11.7435 20.0845 11.625 19.7984 11.625 19.5V16.3378C11.625 16.0395 11.7435 15.7533 11.9545 15.5423C12.1655 15.3314 12.4516 15.2128 12.75 15.2128Z" fill="currentColor"/>
</svg>
