<svg width="23" height="21" viewBox="0 0 23 21" fill="none" xmlns="http://www.w3.org/2000/svg">
<path d="M0.651834 6.97481V6.97391C0.651834 5.2285 1.33084 3.5851 2.56557 2.35037C3.80012 1.11582 5.43915 0.43664 7.18482 0.43664C8.78713 0.43664 10.3042 1.01034 11.4966 2.06086C12.6929 1.00606 14.2142 0.428076 15.8213 0.428076C17.5627 0.428076 19.2015 1.10728 20.4358 2.33707L20.4363 2.33753C21.671 3.57226 22.35 5.21566 22.35 6.96106C22.35 8.70293 21.6662 10.3461 20.432 11.5803L20.4319 11.5804L12.7204 19.2876C12.7204 19.2877 12.7203 19.2877 12.7203 19.2877C12.3937 19.6143 11.9536 19.7969 11.4924 19.7969C11.0351 19.7969 10.5865 19.6098 10.2643 19.2876L2.56985 11.5932C1.33519 10.3585 0.656357 8.71541 0.651834 6.97481ZM19.196 3.57727C18.2938 2.67525 17.0941 2.17713 15.817 2.17713C14.5397 2.17713 13.3356 2.67542 12.4292 3.58183L12.1124 3.89868C11.9486 4.06248 11.7269 4.15534 11.4924 4.15534C11.2636 4.15534 11.0372 4.06355 10.8723 3.89868L10.5641 3.59039C9.65754 2.68387 8.45765 2.18569 7.17625 2.18569C5.89907 2.18569 4.69921 2.68392 3.79702 3.58611C2.89092 4.4922 2.3966 5.69191 2.3966 6.96962C2.3966 8.24659 2.89468 9.44652 3.8013 10.3531L11.4907 18.0425C11.4907 18.0425 11.4907 18.0425 11.4907 18.0425C11.4921 18.0425 11.4933 18.0424 11.4943 18.0423L19.192 10.3446C20.0986 9.43795 20.5967 8.23802 20.5967 6.96106C20.5967 5.68414 20.0986 4.48404 19.196 3.57727Z" fill="currentColor" stroke="#A6A9B9" stroke-width="0.7"/>
</svg>
