<svg width="208" height="208" viewBox="0 0 208 208" fill="none" xmlns="http://www.w3.org/2000/svg">
<path d="M66.5 54C24.8333 87.3333 20.6667 133.167 54 191.5M141.5 154C183.167 120.667 187.333 75.7305 154 17.3972M104 4C77.4784 4 52.043 14.5357 33.2893 33.2893C14.5357 52.043 4 77.4784 4 104C4 130.522 14.5357 155.957 33.2893 174.711C52.043 193.464 77.4784 204 104 204C130.522 204 155.957 193.464 174.711 174.711C193.464 155.957 204 130.522 204 104C204 77.4784 193.464 52.043 174.711 33.2893C155.957 14.5357 130.522 4 104 4ZM104 41.5C87.424 41.5 71.5269 48.0848 59.8058 59.8058C48.0848 71.5269 41.5 87.424 41.5 104C41.5 120.576 48.0848 136.473 59.8058 148.194C71.5269 159.915 87.424 166.5 104 166.5C120.576 166.5 136.473 159.915 148.194 148.194C159.915 136.473 166.5 120.576 166.5 104C166.5 87.424 159.915 71.5269 148.194 59.8058C136.473 48.0848 120.576 41.5 104 41.5Z" stroke="currentColor" stroke-width="7" stroke-linejoin="round"/>
</svg>
