<svg width="26" height="26" viewBox="0 0 26 26" fill="none" xmlns="http://www.w3.org/2000/svg">
<path d="M19.4987 10.8334H6.4987C6.21138 10.8334 5.93583 10.9476 5.73267 11.1507C5.5295 11.3539 5.41536 11.6294 5.41536 11.9167C5.41536 12.2041 5.5295 12.4796 5.73267 12.6828C5.93583 12.8859 6.21138 13.0001 6.4987 13.0001H7.58203V22.7501C7.58203 23.0374 7.69617 23.3129 7.89933 23.5161C8.1025 23.7193 8.37805 23.8334 8.66536 23.8334C8.95268 23.8334 9.22823 23.7193 9.4314 23.5161C9.63456 23.3129 9.7487 23.0374 9.7487 22.7501V21.6667H11.9154V22.7501C11.9154 23.0374 12.0295 23.3129 12.2327 23.5161C12.4358 23.7193 12.7114 23.8334 12.9987 23.8334C13.286 23.8334 13.5616 23.7193 13.7647 23.5161C13.9679 23.3129 14.082 23.0374 14.082 22.7501V21.6667H16.2487V22.7501C16.2487 23.0374 16.3628 23.3129 16.566 23.5161C16.7692 23.7193 17.0447 23.8334 17.332 23.8334C17.6193 23.8334 17.8949 23.7193 18.0981 23.5161C18.3012 23.3129 18.4154 23.0374 18.4154 22.7501V13.0001H19.4987C19.786 13.0001 20.0616 12.8859 20.2647 12.6828C20.4679 12.4796 20.582 12.2041 20.582 11.9167C20.582 11.6294 20.4679 11.3539 20.2647 11.1507C20.0616 10.9476 19.786 10.8334 19.4987 10.8334ZM11.9154 19.5001H9.7487V17.3334H11.9154V19.5001ZM11.9154 15.1667H9.7487V13.0001H11.9154V15.1667ZM16.2487 19.5001H14.082V17.3334H16.2487V19.5001ZM16.2487 15.1667H14.082V13.0001H16.2487V15.1667ZM21.6654 2.16675H4.33203C3.47008 2.16675 2.64343 2.50916 2.03393 3.11865C1.42444 3.72814 1.08203 4.55479 1.08203 5.41675V14.0834C1.08203 14.9454 1.42444 15.772 2.03393 16.3815C2.64343 16.991 3.47008 17.3334 4.33203 17.3334C4.61935 17.3334 4.8949 17.2193 5.09806 17.0161C5.30123 16.8129 5.41536 16.5374 5.41536 16.2501C5.41536 15.9628 5.30123 15.6872 5.09806 15.484C4.8949 15.2809 4.61935 15.1667 4.33203 15.1667C4.04471 15.1667 3.76916 15.0526 3.566 14.8494C3.36283 14.6463 3.2487 14.3707 3.2487 14.0834V5.41675C3.2487 5.12943 3.36283 4.85388 3.566 4.65072C3.76916 4.44755 4.04471 4.33341 4.33203 4.33341H21.6654C21.9527 4.33341 22.2282 4.44755 22.4314 4.65072C22.6346 4.85388 22.7487 5.12943 22.7487 5.41675V14.0834C22.7487 14.3707 22.6346 14.6463 22.4314 14.8494C22.2282 15.0526 21.9527 15.1667 21.6654 15.1667C21.378 15.1667 21.1025 15.2809 20.8993 15.484C20.6962 15.6872 20.582 15.9628 20.582 16.2501C20.582 16.5374 20.6962 16.8129 20.8993 17.0161C21.1025 17.2193 21.378 17.3334 21.6654 17.3334C22.5273 17.3334 23.354 16.991 23.9635 16.3815C24.573 15.772 24.9154 14.9454 24.9154 14.0834V5.41675C24.9154 4.55479 24.573 3.72814 23.9635 3.11865C23.354 2.50916 22.5273 2.16675 21.6654 2.16675ZM15.1654 8.66675C15.4527 8.66675 15.7282 8.55261 15.9314 8.34945C16.1346 8.14628 16.2487 7.87073 16.2487 7.58341C16.2487 7.2961 16.1346 7.02055 15.9314 6.81738C15.7282 6.61422 15.4527 6.50008 15.1654 6.50008H10.832C10.5447 6.50008 10.2692 6.61422 10.066 6.81738C9.86283 7.02055 9.7487 7.2961 9.7487 7.58341C9.7487 7.87073 9.86283 8.14628 10.066 8.34945C10.2692 8.55261 10.5447 8.66675 10.832 8.66675H15.1654Z" fill="currentColor"/>
</svg>
